<svg width="34" height="34" viewBox="0 0 34 34" fill="none" xmlns="http://www.w3.org/2000/svg">
<path id="Vector" d="M17 0C12.4913 0 8.1673 1.79107 4.97918 4.97918C1.79107 8.1673 0 12.4913 0 17C0 21.5087 1.79107 25.8327 4.97918 29.0208C8.1673 32.2089 12.4913 34 17 34C21.5087 34 25.8327 32.2089 29.0208 29.0208C32.2089 25.8327 34 21.5087 34 17C34 12.4913 32.2089 8.1673 29.0208 4.97918C25.8327 1.79107 21.5087 0 17 0ZM2.09667 18.2844H6.83778C6.91333 20.0033 7.15322 21.7109 7.55556 23.3844H3.47556C2.71472 21.7806 2.2477 20.0532 2.09667 18.2844ZM18.2844 8.08444V2.24778C20.1047 2.93953 21.6005 4.28707 22.4778 6.02556C22.865 6.681 23.2069 7.36289 23.4978 8.06556L18.2844 8.08444ZM24.3667 10.6344C24.8049 12.3023 25.0656 14.0118 25.1411 15.7344H18.2844V10.6344H24.3667ZM15.7156 2.24778V8.08444H10.5022C10.7936 7.3812 11.1345 6.6995 11.5222 6.04444C12.3958 4.29883 13.892 2.94414 15.7156 2.24778ZM15.7156 10.6344V15.7344H8.87778C8.95333 14.0118 9.214 12.3023 9.65222 10.6344H15.7156ZM6.83778 15.7156H2.09667C2.2477 13.9468 2.71472 12.2194 3.47556 10.6156H7.55556C7.15245 12.2884 6.91207 13.9964 6.83778 15.7156ZM8.87778 18.2844H15.7156V23.3844H9.65222C9.21407 21.7167 8.95446 20.0071 8.87778 18.2844ZM15.7344 25.84V31.6767C13.9142 30.9849 12.4184 29.6374 11.5411 27.8989C11.1533 27.2438 10.8125 26.5621 10.5211 25.8589L15.7344 25.84ZM18.2844 31.6767V25.9344H23.4978C23.2064 26.6377 22.8655 27.3194 22.4778 27.9744C21.6005 29.7129 20.1047 31.0605 18.2844 31.7522V31.6767ZM18.2844 23.29V18.19H25.1222C25.0455 19.9126 24.7859 21.6222 24.3478 23.29H18.2844ZM27.1811 18.19H31.9222C31.7712 19.9588 31.3042 21.6861 30.5433 23.29H26.4444C26.8411 21.6467 27.081 19.9712 27.1622 18.2844L27.1811 18.19ZM27.1811 15.64C27.0946 13.9519 26.8479 12.2759 26.4444 10.6344H30.5244C31.2857 12.24 31.7522 13.9664 31.9033 15.7344L27.1811 15.64ZM29.07 8.08444H25.6889C25.0771 6.36612 24.1904 4.75854 23.0633 3.32444C25.4138 4.37954 27.4555 6.0181 28.9944 8.08444H29.07ZM10.9367 3.32444C9.8096 4.75854 8.92288 6.36612 8.31111 8.08444H5.00556C6.54447 6.0181 8.58617 4.37954 10.9367 3.32444ZM4.98667 25.9911H8.31111C8.92288 27.7094 9.8096 29.317 10.9367 30.7511C8.57966 29.6801 6.53734 28.0216 5.00556 25.9344L4.98667 25.9911ZM23.0444 30.7511C24.1715 29.317 25.0582 27.7094 25.67 25.9911H28.9944C27.4461 28.0298 25.4052 29.6417 23.0633 30.6756L23.0444 30.7511Z" fill="#404040"/>
</svg>
