<svg width="62" height="62" viewBox="0 0 62 62" fill="none" xmlns="http://www.w3.org/2000/svg">
<g clip-path="url(#clip0_65_60)">
<path d="M21.7491 48.7278C20.7659 48.4299 20.2967 47.7848 20.287 46.718C20.2742 45.2905 21.0655 44.5582 22.6178 44.5613C23.6231 44.5639 23.9518 44.6469 23.9518 44.9006C23.9518 45.0733 23.8147 45.0974 22.8726 45.0903C21.9072 45.0831 21.7541 45.1115 21.4194 45.3614C20.5359 46.021 20.6235 47.4663 21.5828 48.0562C21.9405 48.2763 22.1057 48.2987 22.9703 48.2451C23.857 48.1899 23.9518 48.2041 23.9518 48.391C23.9518 48.5048 23.8724 48.6283 23.7753 48.6653C23.4133 48.8036 22.1298 48.8432 21.7491 48.7279V48.7278ZM26.2348 48.6358C26.1996 48.5791 26.4012 48.0437 26.6829 47.4459C26.9645 46.8481 27.3823 45.9503 27.6113 45.4508C27.9715 44.6653 28.0637 44.5477 28.2939 44.5802C28.5089 44.6105 28.6632 44.852 29.0968 45.8367C29.392 46.5071 29.7727 47.3575 29.9426 47.7264C30.3091 48.5219 30.328 48.7389 30.0311 48.7389C29.8839 48.7389 29.728 48.5639 29.5618 48.2122L29.313 47.6854L28.2511 47.7188L27.1892 47.7523L26.9413 48.2424C26.709 48.7017 26.387 48.881 26.2348 48.6359L26.2348 48.6358ZM29.0656 47.141C29.0442 47.0921 28.874 46.6742 28.6874 46.2123C28.5008 45.7503 28.3166 45.3723 28.2781 45.3723C28.2045 45.3723 27.6575 46.5203 27.5176 46.9685C27.4382 47.2226 27.4587 47.2297 28.2702 47.2297C28.729 47.2297 29.0869 47.1898 29.0656 47.1409V47.141ZM32.7016 46.6493V44.5597H33.6386C34.8326 44.5597 35.3329 44.7558 35.5682 45.3162C35.6765 45.5743 35.7151 45.8812 35.6695 46.1229C35.596 46.5129 35.2418 46.9975 35.0303 46.9975C34.8225 46.9975 34.9159 47.2391 35.3953 47.9416C35.6577 48.3261 35.8439 48.669 35.809 48.7037C35.6319 48.8799 35.1556 48.5419 34.7005 47.917C34.2055 47.2375 34.1774 47.2187 33.7088 47.2527L33.2266 47.2878L33.1918 48.0134C33.1617 48.6438 33.1272 48.739 32.9293 48.739C32.7118 48.739 32.7015 48.6445 32.7015 46.6494L32.7016 46.6493ZM34.8441 46.5247C35.0791 46.3408 35.1515 46.181 35.1515 45.8465C35.1515 45.4714 35.0973 45.3801 34.7724 45.2075C34.5175 45.0722 34.2019 45.0186 33.8099 45.0441L33.2266 45.0821L33.1923 45.9237L33.158 46.7654H33.8473C34.3681 46.7654 34.6119 46.7065 34.8441 46.5247H34.8441ZM38.2112 46.6783L38.2431 44.6177H39.6415C40.8805 44.6177 41.0443 44.6409 41.0792 44.8209C41.1144 45.0025 41.0034 45.0242 40.0308 45.0258C39.4325 45.0266 38.8743 45.071 38.7901 45.1241C38.6889 45.188 38.6494 45.4131 38.6735 45.7898L38.7097 46.359L39.7585 46.4171C40.6275 46.4653 40.8138 46.5092 40.8454 46.6739C40.8788 46.848 40.7492 46.8767 39.7966 46.906L38.7097 46.9395L38.6735 47.5087C38.6495 47.8854 38.6889 48.1105 38.7901 48.1744C38.8743 48.2275 39.4287 48.2717 40.0222 48.2727C41.023 48.2745 41.1014 48.2913 41.1014 48.5066C41.1014 48.7265 41.0235 48.7388 39.6404 48.7388H38.1794L38.2112 46.6783ZM14.9218 45.6352C14.8834 45.5971 14.8521 40.717 14.8521 34.7906V24.0155L17.5061 22.2615L20.1602 20.5076L20.1902 28.9349C20.2112 34.848 20.2576 37.3622 20.3455 37.3622C20.4145 37.3622 21.1623 36.9622 22.0072 36.4734C22.8522 35.9845 23.7273 35.482 23.9519 35.3567C24.4166 35.0972 27.0777 33.5676 27.5488 33.2892C27.72 33.1879 28.1751 32.9326 28.5601 32.7218C28.9451 32.511 29.6136 32.1313 30.0457 31.878L30.8313 31.4174L31.504 31.7956C31.8739 32.0036 32.3375 32.2639 32.5341 32.3741C32.7307 32.4842 33.5969 32.9793 34.4591 33.4743C36.5852 34.6951 37.3694 35.1425 38.5348 35.7993C39.0802 36.1067 39.894 36.5759 40.3431 36.842C40.7923 37.1081 41.4218 37.4705 41.742 37.6475C42.0623 37.8245 43.191 38.4689 44.2503 39.0795C45.3096 39.6901 46.3207 40.2626 46.4971 40.3517L46.8179 40.5136V43.0522C46.8179 44.4484 46.774 45.6178 46.7204 45.6507C46.6233 45.7104 45.9972 45.3674 41.4514 42.764C40.136 42.0107 38.899 41.3032 38.7024 41.1917C38.5058 41.0803 37.6658 40.5982 36.8357 40.1203C36.0057 39.6425 35.0641 39.1133 34.7433 38.9443C34.161 38.6377 33.9534 38.5163 33.4021 38.1602C33.2414 38.0565 32.6242 37.7039 32.0306 37.3767C30.9794 36.7973 30.5674 36.6712 30.433 36.8876C30.3969 36.9459 29.9869 37.2061 29.522 37.4658C29.0571 37.7255 28.4142 38.0878 28.0934 38.2709C26.6373 39.1018 22.0686 41.7214 21.3853 42.1171C20.9682 42.3587 19.9476 42.9418 19.1174 43.4129C18.2871 43.884 17.3683 44.4116 17.0757 44.5854C15.6377 45.4392 15.025 45.7378 14.9219 45.6352H14.9218ZM44.8929 35.4052C44.0588 34.9703 42.6277 34.214 41.7128 33.7246C40.7979 33.2352 40.0017 32.8347 39.9434 32.8347C39.8851 32.8347 39.82 32.7955 39.7986 32.7477C39.7772 32.6998 39.4972 32.5309 39.1764 32.3724C38.8556 32.2139 38.2518 31.8955 37.8348 31.6648C37.4177 31.4341 36.4465 30.9166 35.6765 30.5149C34.9065 30.1131 33.8828 29.5748 33.4016 29.3185C32.9203 29.0621 32.2116 28.6941 31.8266 28.5007C31.4416 28.3072 30.9822 28.0504 30.8058 27.93L30.485 27.711V25.2811C30.485 23.6514 30.5255 22.8511 30.6082 22.8511C30.7222 22.8511 33.873 24.4353 37.9514 26.5431C40.123 27.6654 41.1806 28.1912 41.2664 28.1912C41.3039 28.1912 41.3347 26.1538 41.3347 23.6636V19.1359L35.9973 16.4951C33.0618 15.0426 30.6214 13.802 30.5743 13.7382C30.5271 13.6743 30.4877 12.5642 30.4867 11.2713C30.4849 9.37292 30.5153 8.92047 30.6426 8.92047C30.7294 8.92047 31.8974 9.44725 33.2384 10.0911C37.2449 12.0148 39.5828 13.1304 41.9763 14.2607C42.618 14.5637 43.7654 15.109 44.5263 15.4724C45.2871 15.8359 46.0352 16.1807 46.1887 16.2388L46.4679 16.3444V26.2729C46.4679 31.7335 46.4548 36.2001 46.4387 36.1986C46.4226 36.1968 45.727 35.8401 44.8929 35.4052L44.8929 35.4052Z" fill="black"/>
</g>
<circle cx="31" cy="31" r="29" stroke="black" stroke-width="2.68067"/>
<circle cx="31" cy="31" r="29" stroke="black" stroke-width="2.68067"/>
<defs>
<clipPath id="clip0_65_60">
<rect width="31.9659" height="39.875" fill="white" transform="translate(14.8521 8.92047)"/>
</clipPath>
</defs>
</svg>
