<svg width="39" height="28" viewBox="0 0 39 28" fill="none" xmlns="http://www.w3.org/2000/svg">
<path d="M15.6 19.5L25.7205 13.65L15.6 7.8V19.5ZM38.142 4.2315C38.3955 5.148 38.571 6.3765 38.688 7.9365C38.8245 9.4965 38.883 10.842 38.883 12.012L39 13.65C39 17.9205 38.688 21.06 38.142 23.0685C37.6545 24.8235 36.5235 25.9545 34.7685 26.442C33.852 26.6955 32.175 26.871 29.601 26.988C27.066 27.1245 24.7455 27.183 22.6005 27.183L19.5 27.3C11.3295 27.3 6.24 26.988 4.2315 26.442C2.4765 25.9545 1.3455 24.8235 0.858 23.0685C0.6045 22.152 0.429 20.9235 0.312 19.3635C0.1755 17.8035 0.117 16.458 0.117 15.288L0 13.65C0 9.3795 0.312 6.24 0.858 4.2315C1.3455 2.4765 2.4765 1.3455 4.2315 0.858C5.148 0.6045 6.825 0.429 9.399 0.312C11.934 0.1755 14.2545 0.117 16.3995 0.117L19.5 0C27.6705 0 32.76 0.312 34.7685 0.858C36.5235 1.3455 37.6545 2.4765 38.142 4.2315Z" fill="#FF2E2E"/>
</svg>
